<?xml version="1.0" standalone="no"?>
<!DOCTYPE svg PUBLIC "-//W3C//DTD SVG 20010904//EN"
 "http://www.w3.org/TR/2001/REC-SVG-20010904/DTD/svg10.dtd">
<svg version="1.0" xmlns="http://www.w3.org/2000/svg"
 width="608.000000pt" height="622.000000pt" viewBox="0 0 608.000000 622.000000"
 preserveAspectRatio="xMidYMid meet">

<g transform="translate(0.000000,622.000000) scale(0.100000,-0.100000)"
fill="#000000" stroke="none">
<path d="M3171 5156 c2 -2 24 -6 48 -9 29 -4 40 -2 30 4 -13 8 -88 14 -78 5z"/>
<path d="M3160 5131 c0 -6 11 -11 24 -11 46 0 71 -39 90 -140 11 -61 11 -70
-1 -66 -8 3 -11 2 -8 -3 3 -5 -3 -12 -12 -14 -15 -4 -14 -5 3 -6 31 -2 71 34
84 74 21 65 -14 164 -58 163 -9 0 -41 4 -69 8 -37 5 -53 3 -53 -5z"/>
<path d="M2763 5110 c-42 -17 -70 -111 -49 -162 14 -34 38 -51 86 -63 19 -5
22 -4 10 4 -8 6 -23 11 -33 11 -11 0 -15 4 -11 12 4 6 3 8 -4 5 -7 -5 -11 14
-14 55 -2 50 1 69 17 93 12 16 30 31 40 33 11 2 24 8 30 13 12 12 -42 11 -72
-1z"/>
<path d="M3392 4948 c-18 -51 -45 -82 -89 -104 -32 -15 -74 -19 -273 -24
l-235 -6 260 -2 c189 -1 267 2 284 11 32 16 74 96 69 133 -3 28 -3 28 -16 -8z"/>
<path d="M3270 4693 c-78 -5 -111 -14 -131 -34 -18 -18 -19 -35 -19 -257 0
-235 0 -239 23 -259 21 -20 35 -21 527 -28 278 -3 577 -10 664 -15 88 -5 162
-7 165 -5 6 7 -7 59 -62 247 -60 202 -77 239 -127 267 -41 23 -57 41 -19 21
11 -7 23 -9 25 -7 3 3 -19 16 -48 30 -37 18 -85 30 -156 38 -57 6 -105 9 -108
6 -3 -3 25 -8 63 -12 100 -10 147 -26 58 -20 -344 23 -739 36 -855 28z m-30
-47 c0 13 101 10 188 -6 28 -5 59 -7 67 -4 8 4 22 1 30 -6 8 -7 15 -9 15 -5 0
4 7 2 15 -5 13 -11 13 -14 1 -24 -7 -6 -16 -27 -20 -45 -12 -66 -56 -143 -56
-98 0 6 -18 -15 -40 -48 -22 -33 -40 -70 -40 -82 0 -13 -4 -23 -10 -23 -5 0
-15 -18 -21 -40 -7 -22 -17 -40 -23 -41 -6 0 -2 -4 9 -9 18 -7 16 -9 -12 -15
-18 -4 -40 -18 -50 -31 -18 -25 -82 -36 -67 -12 5 7 2 9 -9 5 -12 -4 -18 5
-27 46 -6 29 -15 70 -20 92 -5 22 -11 102 -13 178 -3 110 -1 140 10 144 7 3
13 11 13 19 0 7 6 11 14 8 8 -3 17 0 21 6 6 9 10 9 16 -1 5 -9 9 -10 9 -3z
m987 8 c-3 -3 -12 -4 -19 -1 -8 3 -5 6 6 6 11 1 17 -2 13 -5z"/>
<path d="M2483 4683 c71 -2 183 -2 250 0 67 1 10 3 -128 3 -137 0 -192 -2
-122 -3z"/>
<path d="M1708 4583 c-15 -18 -46 -73 -35 -63 9 8 57 80 53 80 -1 0 -10 -8
-18 -17z"/>
<path d="M1646 4465 c-3 -9 -6 -22 -5 -28 0 -7 5 -1 10 12 5 13 8 26 5 28 -2
2 -6 -3 -10 -12z"/>
<path d="M4635 4415 c2 -16 23 -97 45 -180 111 -412 107 -386 130 -840 11
-225 23 -523 27 -661 l6 -251 -333 -6 c-183 -4 -587 -7 -896 -7 -364 0 -565
-4 -569 -10 -3 -6 -37 -10 -76 -10 -38 0 -69 -4 -69 -10 0 -5 -11 -12 -25 -16
-20 -5 -23 -9 -14 -20 9 -11 6 -16 -12 -23 -13 -5 -17 -10 -9 -11 31 -1 -14
-20 -50 -20 -19 0 -53 -7 -75 -15 -22 -8 -55 -14 -73 -15 -18 0 -31 -4 -28 -9
7 -11 -25 -20 -84 -23 -25 -2 455 -6 1065 -10 611 -4 1141 -8 1179 -9 l69 -2
-7 -91 c-3 -50 -13 -120 -21 -156 -20 -81 -70 -166 -103 -175 -34 -8 -39 1
-12 25 13 11 20 20 16 20 -3 0 0 13 9 30 8 16 15 45 15 65 0 19 5 35 10 35 6
0 10 17 10 38 0 21 6 44 13 52 10 12 9 12 -5 1 -16 -12 -18 -11 -18 10 0 19
-2 21 -10 9 -5 -8 -7 -36 -4 -62 5 -43 4 -48 -15 -48 -16 0 -30 -19 -60 -79
-22 -43 -48 -82 -58 -85 -37 -15 -373 -26 -800 -26 l-443 0 0 31 c0 17 -4 28
-10 24 -5 -3 -10 -15 -10 -26 0 -10 -4 -19 -10 -19 -5 0 -10 -15 -10 -32 0
-22 -3 -29 -9 -19 -11 18 -19 -40 -27 -214 -4 -77 -9 -144 -13 -150 -3 -5 -8
76 -11 180 l-5 190 -212 3 c-182 2 -213 0 -227 -14 -13 -13 -16 -44 -16 -194
l0 -179 -27 -3 c-26 -3 -28 -7 -31 -53 -2 -27 -7 -54 -12 -60 -12 -15 -1 -29
39 -51 56 -31 67 -38 97 -62 16 -13 63 -48 104 -79 l75 -56 -121 7 c-206 10
-632 78 -988 157 -98 21 -181 37 -184 34 -3 -3 2 -22 12 -41 9 -20 15 -39 12
-41 -2 -3 -14 18 -27 46 -12 28 -27 51 -34 51 -28 0 -126 107 -165 180 -10 18
-14 20 -22 9 -7 -11 -8 -9 -4 5 6 19 -51 122 -62 112 -3 -3 0 -12 7 -20 6 -8
10 -20 9 -27 -2 -8 2 -13 9 -12 14 3 27 -32 18 -47 -3 -5 0 -20 6 -32 11 -20
10 -21 -3 -11 -13 11 -14 0 -13 -87 2 -85 0 -102 -16 -119 -11 -11 -19 -26
-19 -33 0 -9 3 -9 10 2 5 8 10 10 10 5 0 -6 -9 -18 -20 -28 -11 -9 -20 -23
-20 -31 0 -8 -9 -18 -21 -21 -34 -11 -59 -38 -59 -63 0 -14 -4 -21 -11 -16 -6
4 -9 -1 -8 -12 5 -27 -9 -44 -36 -44 -13 0 -30 -6 -37 -12 -7 -7 -24 -14 -38
-16 -13 -1 -27 -7 -30 -13 -4 -5 -11 -9 -16 -8 -21 4 -32 -2 -37 -21 -4 -16
-11 -19 -30 -15 -17 5 -28 2 -34 -9 -6 -10 -28 -16 -73 -18 -63 -3 -65 -4 -68
-30 -3 -27 -6 -28 -58 -28 -30 0 -54 -4 -54 -10 0 -5 -6 -10 -14 -10 -8 0 -17
-6 -19 -12 -4 -10 -8 -9 -17 2 -9 11 -13 12 -17 3 -2 -7 -13 -13 -24 -13 -10
0 -19 -4 -19 -10 0 -5 13 -10 29 -10 27 0 47 -20 34 -34 -12 -12 -25 -6 -19 9
5 13 -2 15 -42 13 -45 -3 -47 -2 -44 22 1 18 -1 21 -7 11 -5 -7 -11 -9 -13 -5
-3 5 -3 3 -2 -3 4 -16 -12 -17 -21 -2 -4 6 -13 8 -21 5 -7 -3 -16 -1 -19 4 -4
6 2 10 12 11 14 0 15 2 3 6 -16 6 -34 31 -35 48 0 10 -23 15 -38 7 -4 -2 -3
-10 4 -18 6 -7 15 -11 20 -9 4 3 13 -4 19 -15 6 -11 8 -20 4 -20 -3 0 -1 -7 6
-15 7 -8 16 -12 21 -9 5 3 9 -1 9 -8 0 -16 66 -81 100 -98 23 -12 24 -12 11 3
-7 10 -12 17 -10 18 34 7 38 6 32 -4 -4 -7 -9 -20 -10 -31 -2 -14 1 -17 14
-12 10 4 14 4 10 0 -8 -8 51 -61 78 -70 11 -4 27 -12 36 -20 8 -7 52 -32 98
-54 65 -32 86 -38 101 -30 23 12 26 26 8 34 -7 4 -3 4 10 2 18 -4 21 -2 12 9
-8 10 -8 15 1 21 8 4 9 3 5 -4 -4 -7 -1 -12 6 -12 16 0 77 40 63 41 -5 0 0 4
13 10 13 5 21 13 17 19 -3 5 0 8 7 5 16 -6 98 65 98 85 0 12 2 12 8 2 7 -10
13 -8 26 7 17 19 17 19 -5 14 l-22 -6 18 31 c10 17 23 28 29 25 6 -4 6 -8 -2
-11 -14 -4 -16 -22 -3 -22 5 0 19 9 32 21 13 11 19 18 12 15 -7 -4 -11 1 -10
13 1 16 5 18 19 10 10 -6 16 -15 12 -22 -4 -7 1 -4 12 5 15 14 16 20 5 30 -10
11 -11 9 -5 -7 6 -16 5 -18 -7 -7 -21 19 5 41 31 24 16 -10 18 -9 13 5 -4 10
-2 14 4 10 6 -4 18 2 27 12 13 14 14 21 5 27 -8 5 -10 3 -4 -6 6 -9 4 -11 -5
-5 -9 6 -11 4 -5 -5 6 -9 4 -11 -5 -5 -9 6 -11 4 -5 -5 6 -9 4 -11 -4 -6 -9 6
-8 12 4 26 9 10 14 25 10 32 -3 7 -1 6 7 -2 7 -9 21 -14 32 -12 13 3 16 0 10
-10 -6 -10 -5 -10 9 1 18 14 23 26 8 16 -5 -3 -8 9 -7 27 2 20 8 32 19 34 10
1 15 -2 11 -7 -3 -5 0 -9 6 -9 6 0 8 -5 5 -11 -4 -6 -14 -8 -22 -5 -8 3 -11 1
-8 -4 8 -14 18 -13 40 5 50 37 191 149 195 154 3 3 17 16 31 29 l26 23 35 -21
c40 -23 173 -70 200 -70 28 0 22 -16 -18 -47 -75 -58 -104 -85 -98 -95 3 -5
13 -7 21 -3 12 4 13 2 6 -7 -22 -29 -138 -174 -148 -184 -5 -6 -75 -83 -154
-172 -94 -106 -152 -162 -165 -163 -12 -1 -3 -5 19 -10 47 -9 236 -12 259 -3
9 3 34 34 57 67 59 87 267 362 289 382 10 9 34 20 53 25 30 6 35 5 30 -9 -10
-26 -53 -100 -118 -201 -34 -52 -85 -134 -113 -182 l-52 -88 60 0 c60 0 64 3
61 41 -2 15 19 18 161 24 90 4 363 4 608 1 245 -3 601 -6 791 -6 l346 0 11
-24 c8 -19 8 -26 -1 -30 -7 -2 8 -5 32 -5 33 -1 41 2 34 11 -6 7 -68 103 -138
212 -130 203 -139 225 -91 232 47 7 84 -32 285 -299 57 -75 111 -142 121 -147
20 -11 190 -14 190 -4 0 8 -76 99 -144 174 -96 104 -227 262 -179 215 20 -20
275 -309 306 -347 28 -35 34 -38 76 -37 25 1 38 3 29 6 -22 6 -244 251 -333
369 -69 92 -120 170 -94 147 15 -15 43 -18 34 -4 -3 5 12 15 32 21 21 7 64 26
95 43 42 23 54 34 47 43 -8 9 -5 11 10 7 20 -5 129 -89 412 -318 187 -152 244
-195 259 -195 21 0 169 80 258 139 179 121 301 257 386 436 67 139 70 149 103
270 l27 100 1 750 c1 413 -2 640 -5 505 -3 -135 -7 -213 -10 -175 l-4 70 -6
-95 -6 -95 -2 87 c-2 73 -4 86 -17 82 -8 -4 -15 -1 -15 5 0 6 5 11 10 11 6 0
10 14 10 30 0 17 -4 30 -10 30 -5 0 -10 -9 -10 -20 0 -11 -4 -20 -10 -20 -5 0
-10 20 -10 45 0 48 -23 95 -46 95 -8 0 -17 6 -20 14 -3 8 -15 11 -30 8 -24 -4
-34 12 -11 21 8 3 6 10 -8 21 -26 20 -45 20 -45 -1 0 -14 -2 -14 -20 2 -11 10
-20 31 -20 46 0 15 -4 31 -10 34 -5 3 -10 -1 -10 -9 0 -9 -4 -16 -10 -16 -5 0
-10 7 -10 14 0 8 -11 27 -25 42 -14 15 -24 32 -22 38 3 6 -6 25 -19 43 -14 18
-27 46 -30 63 -4 17 -11 33 -15 36 -5 3 -9 13 -9 23 0 10 -7 24 -15 31 -9 7
-13 15 -10 18 3 3 0 11 -6 19 -6 7 -9 13 -5 13 3 0 -8 25 -24 55 -16 30 -33
74 -37 98 -3 23 -23 76 -45 117 -21 41 -38 83 -38 93 0 9 -4 17 -10 17 -5 0
-10 6 -10 13 0 30 -94 233 -155 332 -13 22 -24 46 -25 54 0 8 -9 25 -21 37
-11 12 -21 28 -23 35 -1 8 -17 34 -35 59 -18 25 -37 55 -42 68 -5 12 -12 22
-17 22 -9 0 -44 56 -53 85 -3 11 -11 19 -17 18 -7 -2 -12 4 -12 12 0 19 -18
52 -45 83 -11 13 -19 24 -17 25 2 1 -1 13 -6 27 -18 49 -22 55 -17 25z m-1554
-2830 c-2 -11 -5 -44 -8 -72 -3 -29 -9 -53 -13 -53 -5 0 -11 -13 -15 -30 -4
-16 -10 -30 -14 -30 -5 0 -7 -12 -5 -27 2 -16 1 -20 -2 -10 -8 24 -24 11 -25
-21 l-1 -27 -7 25 c-7 27 -4 26 -128 29 -39 0 -63 5 -63 12 0 8 29 10 91 7
l91 -4 -2 105 c-1 58 -2 110 -1 114 0 4 25 7 54 5 46 -3 52 -5 48 -23z m-1401
-645 c0 -5 -5 -10 -11 -10 -5 0 -7 5 -4 10 3 6 8 10 11 10 2 0 4 -4 4 -10z
m-30 -27 c0 -1 -8 -7 -18 -12 -13 -7 -19 -6 -19 2 0 7 9 13 19 13 10 0 18 -1
18 -3z m-650 -83 c0 -5 -9 -10 -20 -10 -11 0 -20 5 -20 10 0 6 9 10 20 10 11
0 20 -4 20 -10z m-430 -6 c0 -8 -19 -13 -24 -6 -3 5 1 9 9 9 8 0 15 -2 15 -3z
m3521 -91 c13 -16 12 -17 -3 -4 -17 13 -22 21 -14 21 2 0 10 -8 17 -17z
m-3418 -16 c-5 -11 -7 -11 -28 1 -19 11 -18 12 5 8 14 -1 24 -6 23 -9z m18
-44 c13 -16 12 -17 -3 -4 -10 7 -18 15 -18 17 0 8 8 3 21 -13z m1814 -28 c141
-6 287 -18 400 -35 28 -4 -116 -8 -319 -9 -357 -1 -369 0 -353 17 10 10 17 24
17 30 0 9 16 11 53 7 28 -2 119 -7 202 -10z m1230 -35 c14 -6 5 -9 -35 -9 -39
-1 -51 2 -40 9 18 12 48 12 75 0z m-2500 -20 c3 -6 -1 -7 -9 -4 -18 7 -21 14
-7 14 6 0 13 -4 16 -10z m-70 -70 c-3 -5 -12 -10 -18 -10 -7 0 -6 4 3 10 19
12 23 12 15 0z m2611 -15 c101 -5 134 -13 112 -26 -17 -11 -1669 -11 -1686 0
-28 17 25 25 208 31 197 6 1214 3 1366 -5z"/>
<path d="M1631 4404 c0 -11 3 -14 6 -6 3 7 2 16 -1 19 -3 4 -6 -2 -5 -13z"/>
<path d="M1610 4341 c-6 -22 -24 -80 -40 -130 -32 -96 -36 -121 -20 -121 6 0
10 14 10 30 0 17 13 70 29 118 32 96 44 142 37 142 -3 0 -10 -18 -16 -39z"/>
<path d="M3180 3450 c0 -3 27 -32 60 -65 33 -33 60 -63 60 -67 0 -4 -40 -8
-90 -8 l-90 0 -66 70 -67 70 -121 0 -121 -1 -78 -85 -78 -85 82 -89 c80 -87
83 -90 126 -90 l45 0 -61 68 -60 67 92 3 92 3 55 -59 c30 -33 65 -65 77 -71
12 -6 68 -11 125 -11 l103 0 82 89 83 89 -78 85 c-73 80 -79 84 -125 88 -26 2
-47 2 -47 -1z m-160 -132 l68 -73 107 -3 107 -4 -33 -34 c-32 -33 -34 -34
-119 -34 l-86 0 -69 70 -69 70 -103 0 c-57 0 -103 3 -103 7 0 4 14 22 32 40
31 32 34 33 116 33 l84 0 68 -72z"/>
<path d="M3591 3324 c0 -11 3 -14 6 -6 3 7 2 16 -1 19 -3 4 -6 -2 -5 -13z"/>
<path d="M3592 3245 c5 -44 -16 -126 -46 -185 -75 -146 -201 -251 -365 -305
-43 -14 -76 -16 -175 -13 -66 3 -130 8 -141 12 -15 6 -16 5 -5 -2 19 -12 130
-30 198 -31 29 -1 80 6 113 14 33 9 65 13 71 9 6 -4 8 -3 5 3 -3 5 10 17 29
26 41 20 48 21 38 5 -4 -7 -3 -8 5 -4 6 4 9 11 6 16 -3 5 10 16 30 26 19 9 35
21 35 27 0 6 3 8 6 4 4 -3 21 9 39 28 17 19 36 31 40 27 5 -4 6 0 2 10 -8 22
2 29 25 17 17 -9 18 -8 9 10 -7 12 -7 22 -2 25 5 4 11 3 14 -1 2 -5 2 -2 1 5
-5 18 7 43 17 36 5 -3 9 -2 10 3 2 29 11 59 24 82 20 37 37 153 25 165 -7 7
-10 4 -8 -9z"/>
<path d="M5763 2980 c0 -30 2 -43 4 -27 2 15 2 39 0 55 -2 15 -4 2 -4 -28z"/>
<path d="M4223 2912 l-163 -2 -2 -43 c-3 -66 2 -101 15 -114 8 -8 87 -12 250
-15 274 -4 267 -6 267 87 0 39 -5 56 -20 70 -23 21 -55 22 -347 17z m277 -32
c10 -5 22 -24 25 -42 9 -37 -12 -58 -57 -58 -31 0 -62 37 -53 64 3 9 7 23 10
31 5 17 47 20 75 5z"/>
<path d="M1482 2895 c-18 -13 -22 -26 -22 -69 0 -87 -3 -86 272 -86 191 0 238
3 247 14 7 9 11 41 9 83 l-3 68 -240 3 c-205 2 -243 0 -263 -13z m126 -7 c7
-7 12 -31 12 -55 0 -34 -5 -46 -25 -59 -20 -13 -31 -14 -56 -5 -59 20 -73 60
-38 105 15 20 29 26 58 26 20 0 42 -5 49 -12z m352 -20 c0 -11 2 -11 9 0 5 9
8 3 7 -17 -1 -17 -5 -29 -11 -28 -5 2 -16 -2 -23 -10 -9 -9 -40 -13 -92 -13
-110 0 -161 22 -138 59 13 22 248 30 248 9z"/>
<path d="M3088 2703 c6 -2 18 -2 25 0 6 3 1 5 -13 5 -14 0 -19 -2 -12 -5z"/>
<path d="M3240 2705 c0 -5 5 -17 10 -25 5 -8 10 -10 10 -5 0 6 -5 17 -10 25
-5 8 -10 11 -10 5z"/>
<path d="M3208 2693 c7 -3 16 -2 19 1 4 3 -2 6 -13 5 -11 0 -14 -3 -6 -6z"/>
<path d="M3140 2666 c0 -2 7 -7 16 -10 8 -3 12 -2 9 4 -6 10 -25 14 -25 6z"/>
<path d="M4771 2174 c0 -11 3 -14 6 -6 3 7 2 16 -1 19 -3 4 -6 -2 -5 -13z"/>
<path d="M1335 1791 c28 -50 55 -82 55 -64 0 5 32 6 78 1 42 -5 169 -17 282
-28 285 -28 572 -65 722 -95 140 -27 208 -62 226 -113 6 -20 11 19 16 145 4
95 5 176 2 182 -3 5 -285 9 -691 10 -378 1 -693 5 -702 8 -12 5 -9 -7 12 -46z"/>
<path d="M1265 1021 c-3 -5 -1 -12 5 -16 5 -3 10 1 10 9 0 18 -6 21 -15 7z"/>
<path d="M436 977 c3 -10 9 -15 12 -12 3 3 0 11 -7 18 -10 9 -11 8 -5 -6z"/>
<path d="M487 889 c7 -7 15 -10 18 -7 3 3 -2 9 -12 12 -14 6 -15 5 -6 -5z"/>
<path d="M755 800 c3 -5 8 -10 11 -10 2 0 4 5 4 10 0 6 -5 10 -11 10 -5 0 -7
-4 -4 -10z"/>
<path d="M4965 244 c-175 -43 -322 -74 -400 -85 -143 -20 -255 -30 -330 -29
-44 0 -478 -4 -965 -10 -912 -11 -1771 -2 -1910 21 -36 6 -123 12 -193 14
-106 3 -126 1 -117 -10 8 -9 8 -14 -1 -17 -6 -2 18 -12 53 -21 34 -10 71 -23
80 -28 10 -5 27 -9 39 -9 11 0 30 -5 42 -11 12 -7 35 -12 51 -11 17 0 37 -4
44 -11 8 -6 39 -15 71 -21 81 -14 3126 -12 3211 2 36 6 85 15 110 22 25 6 63
15 85 19 22 4 50 13 62 19 12 7 30 12 39 12 10 0 36 9 58 19 23 10 70 32 105
47 35 15 59 30 53 32 -8 2 -7 13 4 34 12 23 13 33 3 44 -16 19 -31 17 -194
-22z"/>
</g>
</svg>
